<?xml version="1.0" encoding="UTF-8" standalone="no"?>
<!-- Created with Inkscape (http://www.inkscape.org/) -->

<svg
   xmlns:dc="http://purl.org/dc/elements/1.1/"
   xmlns:cc="http://creativecommons.org/ns#"
   xmlns:rdf="http://www.w3.org/1999/02/22-rdf-syntax-ns#"
   xmlns:svg="http://www.w3.org/2000/svg"
   xmlns="http://www.w3.org/2000/svg"
   xmlns:sodipodi="http://sodipodi.sourceforge.net/DTD/sodipodi-0.dtd"
   xmlns:inkscape="http://www.inkscape.org/namespaces/inkscape"
   width="128"
   height="128"
   viewBox="0 0 128 128"
   id="svg2"
   version="1.1"
   inkscape:version="0.91 r13725"
   inkscape:export-filename="/home/saxon/src/LD37/assets/buttons/part_accessory.png"
   inkscape:export-xdpi="90"
   inkscape:export-ydpi="90"
   sodipodi:docname="part.svg">
  <defs
     id="defs4" />
  <sodipodi:namedview
     id="base"
     pagecolor="#3a5a9b"
     bordercolor="#666666"
     borderopacity="1.0"
     inkscape:pageopacity="0"
     inkscape:pageshadow="2"
     inkscape:zoom="1"
     inkscape:cx="101.7387"
     inkscape:cy="125.94904"
     inkscape:document-units="px"
     inkscape:current-layer="layer5"
     showgrid="false"
     units="px"
     inkscape:window-width="1855"
     inkscape:window-height="1056"
     inkscape:window-x="65"
     inkscape:window-y="24"
     inkscape:window-maximized="1" />
  <metadata
     id="metadata7">
    <rdf:RDF>
      <cc:Work
         rdf:about="">
        <dc:format>image/svg+xml</dc:format>
        <dc:type
           rdf:resource="http://purl.org/dc/dcmitype/StillImage" />
        <dc:title></dc:title>
      </cc:Work>
    </rdf:RDF>
  </metadata>
  <g
     inkscape:groupmode="layer"
     id="layer6"
     inkscape:label="Accessory"
     sodipodi:insensitive="true"
     style="display:inline">
    <path
       style="fill:#ffffff;fill-opacity:1;fill-rule:evenodd;stroke:none;stroke-width:1px;stroke-linecap:butt;stroke-linejoin:miter;stroke-opacity:1"
       d="m 52.501953,31.126953 -7.601562,3.357422 -6.185547,7.072266 -0.53125,11.136718 -4.773438,9.544922 -0.882812,11.845703 6.716797,11.490235 5.126953,8.130859 9.36914,3.712891 13.789063,-1.238281 15.025391,-7.248047 10.076171,-8.66211 L 97.757812,70.017578 96.873047,59.587891 88.564453,45.445312 82.201172,39.964844 71.064453,37.314453 62.048828,32.716797 52.501953,31.126953 Z m -0.353515,1.589844 9.193359,1.591797 8.662109,4.242187 0.175782,4.419922 -2.828126,5.65625 0.53125,4.949219 -4.951171,-0.529297 -6.892579,2.652344 -2.298828,4.064453 -2.652343,-3.357422 -8.66211,-2.123047 -1.589843,-5.125 0.353515,-6.71875 5.126953,-6.894531 5.832032,-2.828125 z m 24.396484,22.804687 10.429687,0.177735 5.833985,3.888672 1.414062,7.070312 -3.537109,8.132813 -9.369141,8.83789 -13.433594,7.248047 -13.082031,1.945313 -9.546875,-3.00586 -2.65039,-4.595703 0.353515,-4.773437 2.121094,-6.894532 5.126953,-4.773437 7.777344,-0.882813 2.828125,-6.71875 3.181641,-1.414062 6.541015,1.238281 6.011719,-5.480469 z"
       id="path4244"
       inkscape:connector-curvature="0" />
    <path
       style="fill:#ffffff;fill-opacity:1;fill-rule:evenodd;stroke:none;stroke-width:1px;stroke-linecap:butt;stroke-linejoin:miter;stroke-opacity:1"
       d="m 44.017397,81.330952 0,3.358758 2.474874,3.71231 8.308505,3.005204 12.197592,-2.65165 13.258252,-6.363961 7.954951,-7.601398 4.065864,-8.131728 -0.883883,-6.187185 -4.949748,-2.828427 -2.828427,7.424621 -7.954951,8.662058 -9.192388,6.010408 -12.197592,2.828427 z"
       id="path4259"
       inkscape:connector-curvature="0" />
  </g>
  <g
     inkscape:groupmode="layer"
     id="layer3"
     inkscape:label="Legs"
     style="display:none"
     sodipodi:insensitive="true">
    <path
       style="fill:#ffffff;fill-opacity:1;fill-rule:evenodd;stroke:none;stroke-width:1px;stroke-linecap:butt;stroke-linejoin:miter;stroke-opacity:1"
       d="m 57.628906,18.576172 -15.910156,2.828125 -15.732422,-1.767578 -1.591797,9.015625 -0.353515,14.671875 4.773437,23.6875 3.359375,19.798828 0.353516,12.375 -1.767578,6.716793 -0.177735,4.24414 3.712891,-5.6582 8.662109,-3.53516 10.251953,3.35938 6.011719,6.7168 1.060547,-14.318362 -2.828125,-12.550782 2.474609,-18.208984 4.419922,-19.445313 -2.123047,-19.091797 -4.595703,-8.83789 z m -15.732422,4.949219 c 0.68554,0 1.236328,1.744495 1.236328,3.912109 l 0,60.234375 c 0,2.167614 -0.550788,3.912109 -1.236328,3.912109 -0.68554,0 -1.238281,-1.744495 -1.238281,-3.912109 l 0,-60.234375 c 0,-2.167614 0.552741,-3.912109 1.238281,-3.912109 z"
       id="path4197"
       inkscape:connector-curvature="0" />
    <path
       style="fill:#ffffff;fill-opacity:1;fill-rule:evenodd;stroke:none;stroke-width:1px;stroke-linecap:butt;stroke-linejoin:miter;stroke-opacity:1"
       d="m 73.736328,19.033203 -4.597656,8.839844 -2.121094,19.091797 4.419922,19.445312 2.474609,18.207032 -2.828125,12.550781 1.060547,14.320311 6.009766,-6.71875 10.253906,-3.35742 8.662109,3.53516 3.712888,5.65625 -0.17773,-4.24219 -1.767579,-6.716799 0.353515,-12.375 3.359374,-19.798828 4.77344,-23.6875 -0.35352,-14.673828 -1.59179,-9.015625 -15.732426,1.767578 -15.910156,-2.828125 z m 16.419922,4.757813 c 0.68554,0 1.236328,1.744495 1.236328,3.912109 l 0,60.232422 c 0,2.167613 -0.550788,3.914062 -1.236328,3.914062 -0.68554,0 -1.238281,-1.746449 -1.238281,-3.914062 l 0,-60.232422 c 0,-2.167614 0.552741,-3.912109 1.238281,-3.912109 z"
       id="path4197-3"
       inkscape:connector-curvature="0" />
  </g>
  <g
     inkscape:groupmode="layer"
     id="layer4"
     inkscape:label="Right arm"
     sodipodi:insensitive="true"
     style="display:none">
    <path
       style="fill:#ffffff;fill-opacity:1;fill-rule:evenodd;stroke:none;stroke-width:1px;stroke-linecap:butt;stroke-linejoin:miter;stroke-opacity:1"
       d="m 51.003121,119.15868 6.067065,-3.43739 2.250729,-3.19127 7.356518,-2.48882 L 75.632984,98.065263 74.031457,78.565328 86.091595,63.686963 103.66648,41.378093 103.02284,28.35079 96.410258,6.57009 77.704114,12.100021 70.28754,18.22839 58.146606,46.328172 l -4.772972,8.267036 -5.031788,7.301096 -9.814052,7.806051 -10.939418,9.401685 -4.324683,6.076358 0.186069,7.455891 3.143903,3.039884 2.833074,-1.017942 -0.172131,4.187222 4.062462,3.570217 2.656296,-0.71176 -0.413612,4.25194 4.015097,4.35935 5.877597,-0.2808 -0.879238,5.41197 6.429911,3.71231 z M 46.81466,85.793341 45.695805,84.734335 c -0.19292,-0.182872 0.06403,-0.850601 0.575051,-1.498723 L 60.361411,65.362504 c 0.0711,-0.139821 0.08284,-0.252327 0.165348,-0.394113 L 81.550849,28.84086 c 0.377083,-0.648004 0.79568,-1.178158 1.170381,-1.510637 0.374702,-0.332489 0.705537,-0.467296 0.902684,-0.328823 l 0.622285,0.43582 c 0.197155,0.138445 0.223964,0.525875 0.106548,1.039082 -0.117416,0.513197 -0.379528,1.154148 -0.756613,1.802151 L 62.573931,66.405475 c -0.03715,0.06386 -0.07806,0.0869 -0.115945,0.148346 -0.08622,0.140441 -0.01361,0.189432 -0.127045,0.333306 L 48.08449,84.955674 c -0.511024,0.648132 -1.076904,1.020541 -1.269824,0.837669 z"
       id="path4302-5"
       inkscape:connector-curvature="0" />
  </g>
  <g
     inkscape:groupmode="layer"
     id="layer5"
     inkscape:label="Left arm"
     sodipodi:insensitive="true"
     style="display:none">
    <path
       style="fill:#ffffff;fill-opacity:1;fill-rule:evenodd;stroke:none;stroke-width:1px;stroke-linecap:butt;stroke-linejoin:miter;stroke-opacity:1"
       d="M 75.927052,119.15868 69.859987,115.72129 67.609258,112.53002 60.25274,110.0412 51.297189,98.06526 52.898716,78.565325 40.838578,63.68696 23.263693,41.37809 l 0.64364,-13.027303 6.612582,-21.7807003 18.706144,5.5299313 7.416574,6.128369 12.140934,28.099782 4.772972,8.267036 5.031788,7.301096 9.814052,7.806051 10.939418,9.401685 4.324683,6.076358 -0.18607,7.455891 -3.1439,3.039884 -2.833076,-1.017942 0.172131,4.187222 -4.062462,3.57022 -2.656296,-0.71176 0.413612,4.25194 -4.015097,4.35935 -5.877597,-0.2808 0.879238,5.41197 -6.429911,3.71231 z m 4.188461,-33.365342 1.118855,-1.059006 c 0.19292,-0.182872 -0.06403,-0.850601 -0.575051,-1.498723 L 66.568762,65.362501 c -0.0711,-0.139821 -0.08284,-0.252327 -0.165348,-0.394113 L 45.379324,28.840857 c -0.377083,-0.648004 -0.79568,-1.178158 -1.170381,-1.510637 -0.374702,-0.332489 -0.705537,-0.467296 -0.902684,-0.328823 l -0.622285,0.43582 c -0.197155,0.138445 -0.223964,0.525875 -0.106548,1.039082 0.117416,0.513197 0.379528,1.154148 0.756613,1.802151 l 21.022203,36.127022 c 0.03715,0.06386 0.07806,0.0869 0.115945,0.148346 0.08622,0.140441 0.01361,0.189432 0.127045,0.333306 l 14.246451,18.068547 c 0.511024,0.648132 1.076904,1.020541 1.269824,0.837669 z"
       id="path4302"
       inkscape:connector-curvature="0" />
  </g>
  <g
     inkscape:groupmode="layer"
     id="layer2"
     inkscape:label="Torso"
     style="display:none;opacity:1"
     sodipodi:insensitive="true">
    <path
       style="fill:#ffffff;fill-opacity:1;fill-rule:evenodd;stroke:none;stroke-width:1px;stroke-linecap:butt;stroke-linejoin:miter;stroke-opacity:1"
       d="m 84.554688,10.621094 -1.767579,6.363281 -13.964843,3.888672 -13.613282,-3.535156 -3.18164,-6.363282 -12.373047,6.009766 -1.769531,18.207031 -6.716797,15.027344 -4.773438,2.650391 8.429688,34.826171 -7.070313,9.722657 6.009766,7.777341 13.435547,7.7793 10.253906,3.18164 4.949219,-4.5957 6.009765,-1.41407 5.658203,1.23633 4.771485,4.06641 11.136719,-2.65234 11.314454,-7.95508 5.65625,-9.369144 -6.54102,-10.251953 8.36524,-34.648437 -4.24219,-2.828125 L 99.757812,37.84375 97.283203,18.044922 84.554688,10.621094 Z m -15.925782,17.621094 0.09766,0 c 0.691056,0 1.246094,1.744493 1.246094,3.912109 l 0,71.371093 c 0,2.16762 -0.555038,3.91211 -1.246094,3.91211 l -0.09766,0 c -0.691055,0 -1.246094,-1.74449 -1.246094,-3.91211 l 0,-71.371093 c 0,-2.167616 0.555039,-3.91211 1.246094,-3.912109 z"
       id="path4168"
       inkscape:connector-curvature="0" />
  </g>
  <g
     inkscape:label="Head"
     inkscape:groupmode="layer"
     id="layer1"
     transform="translate(0,-924.36216)"
     sodipodi:insensitive="true"
     style="display:none">
    <path
       style="fill:#ffffff;fill-opacity:1;fill-rule:evenodd;stroke:none;stroke-width:1px;stroke-linecap:butt;stroke-linejoin:miter;stroke-opacity:1"
       d="m 19.26866,1026.7295 6.363961,-15.3795 4.065864,-47.90652 19.79899,-19.09188 14.495689,-6.01041 16.086679,6.36396 16.970563,18.73833 3.889084,45.07802 6.71752,18.0313 -19.037616,8.5029 -11.014425,2.4572 -3.005203,-12.5511 3.889087,-29.87529 8.308505,-0.35355 5.126524,-4.5962 1.237437,-6.54073 -1.237437,-13.43503 -6.540738,-2.82843 -15.556349,6.18718 -2.121321,14.84925 -3.889087,6.0104 -4.065864,-5.65685 -1.767767,-14.84924 -16.617009,-6.18719 -5.480078,2.82843 -1.944543,13.43503 1.06066,6.18718 3.889087,4.06587 8.485281,1.41421 3.535534,13.08146 0.353554,14.4957 -2.474874,14.3189 -10.429825,-1.7678 z"
       id="path4155"
       inkscape:connector-curvature="0"
       sodipodi:nodetypes="cccccccccccccccccccccccccccccccccc" />
  </g>
  <g
     inkscape:groupmode="layer"
     id="layer7"
     inkscape:label="Frame"
     sodipodi:insensitive="true">
    <rect
       style="fill:none;fill-opacity:1;stroke:#ffffff;stroke-width:3.90857315;stroke-linecap:round;stroke-linejoin:round;stroke-miterlimit:4;stroke-dasharray:none;stroke-opacity:1"
       id="rect4142"
       width="124.09142"
       height="124.09143"
       x="1.9542866"
       y="1.9542828"
       rx="16"
       ry="16" />
  </g>
</svg>
